<?xml version="1.0" encoding="utf-8"?>
<svg version="1.1" xmlns="http://www.w3.org/2000/svg" xmlns:xlink="http://www.w3.org/1999/xlink" height="38" width="38">
  <defs>
    <path id="path-1" opacity="1" fill-rule="evenodd" d="M36.58924285381209,33.862518247677244 C36.846584680339454,33.392485367750375 37,32.8880718174004 37,32.385622876788965 C37,31.766770809173597 36.79016743375461,31.233870417615996 36.39970070081212,30.847824604008316 L31.23752263829877,25.721666643928096 C30.84705590535628,25.337094287624335 30.296245418962133,25.123934131001242 29.686543245343454,25.123934131001242 C29.1807675785916,25.123934131001242 28.672022583072117,25.27717369060123 28.195940203996486,25.533555261470458 L28.171690685727572,25.511453401912732 L28.117252991654468,25.578250133020457 C27.83318720621849,25.741312741312743 27.559019183341267,25.930897581074248 27.317513776907894,26.173526883774237 L26.62219595715606,27.410248714135598 L26.606854425190015,27.428421354216383 C26.044661511853313,27.96525096525098 24.382332290112117,29.176924021446993 23.59743971920365,29.176924021446993 C22.787802741898325,29.176924021446993 22.02913924177054,28.86749798763934 21.461502559026517,28.304146145135526 L9.496097401759926,16.42660681883296 C8.928460719015916,15.866201890936882 8.616681198415456,15.115720970844645 8.613711869647833,14.319562874333203 C8.613711869647833,13.518002101040949 9.858355511409984,11.87362374994884 10.399763123373337,11.311745364748898 L11.723093977477507,10.691419839829717 C12.384759404529605,10.033275577445156 12.764338598657467,9.182599560691415 12.764338598657467,8.354025403495346 C12.764338598657467,7.732226421272352 12.545103157981263,7.173294950680088 12.14869776750354,6.781355307857052 L6.941979773475828,1.6163963054422394 C6.5440897186143,1.219053985838451 5.983381469661402,1 5.362296869100153,1 C4.859490531115936,1 4.353714864364067,1.1502926449923112 3.880106925928117,1.404218453688408 L3.8563522957871417,1.382116594130738 L3.8029043779699183,1.4474398679345402 C3.5193334806618757,1.60952017135762 3.2436807934008387,1.799105011119122 2.998216281943963,2.0417343138191097 L2.327642868589008,3.302031461042067 C0.6697676399992556,5.618306342687976 0.37481431574865864,11.803880104233437 2.539949875474085,16.47670436716371 C2.8279747659335555,17.07934840443671 5.483544460444779,22.49528630094 10.088973379028742,27.06447740016643 C13.953059881962712,30.903815981554484 18.887094517496998,33.81487646151957 20.708282828306043,34.82763278169639 L20.708282828306043,34.8885356835887 L21.4332939357341,35.21809896721555 C24.029971943020794,36.40030287733468 26.5588502767801,37 28.947675270333157,37 C32.037261853045344,37 33.88170990586744,36.00148710042702 34.69382132381245,35.42290953245016 L35.94984739251717,34.73234920938097 C36.18343458890355,34.503963327284886 36.3660483081124,34.24316138450411 36.52639206156405,33.975483307638775 L36.62437991089563,33.89739007053495 L36.58924285381209,33.862518247677244Z"/>
  </defs>
  <g opacity="1">
    <use xlink:href="#path-1" fill-opacity="0" stroke="rgb(51,51,51)" stroke-opacity="1" stroke-width="2" stroke-linecap="round" stroke-linejoin="round"/>
  </g>
</svg>